<svg height="512" viewBox="0 0 512 512" width="512" xmlns="http://www.w3.org/2000/svg"><g id="filled_outline" data-name="filled outline"><path d="m400 288a8 8 0 0 1 -7.155-4.421l-.845-1.689a17.79 17.79 0 0 0 -16-9.89 8 8 0 0 1 0-16 33.7 33.7 0 0 1 24 9.931 33.7 33.7 0 0 1 24-9.931 8 8 0 0 1 0 16 17.791 17.791 0 0 0 -16 9.889l-.845 1.69a8 8 0 0 1 -7.155 4.421z" fill="#598cdd"/><path d="m440 240a8 8 0 0 1 -7.155-4.421l-.845-1.689a17.79 17.79 0 0 0 -16-9.89 8 8 0 0 1 0-16 33.7 33.7 0 0 1 24 9.931 33.7 33.7 0 0 1 24-9.931 8 8 0 0 1 0 16 17.791 17.791 0 0 0 -16 9.889l-.845 1.69a8 8 0 0 1 -7.155 4.421z" fill="#598cdd"/><path d="m384 112h-24a8 8 0 0 1 0-16h24a8 8 0 0 1 0 16z" fill="#598cdd"/><path d="m240 232h-24a8 8 0 0 1 0-16h24a8 8 0 0 1 0 16z" fill="#598cdd"/><path d="m288 232h-16a8 8 0 0 1 0-16h16a8 8 0 0 1 0 16z" fill="#598cdd"/><path d="m416 80h-16a8 8 0 0 1 0-16h16a8 8 0 0 1 0 16z" fill="#598cdd"/><path d="m334.088 369.889-19.055 38.111h-152a16 16 0 0 0 -16 16 16 16 0 0 0 16 16h176l16-32 11.055-22.111a17.889 17.889 0 0 0 -16-25.889 17.889 17.889 0 0 0 -16 9.889z" fill="#ebc643"/><path d="m163.033 440-8 48h32l8-24h112l8 24h32l-8-48z" fill="#bf6d48"/><circle cx="80" cy="456" fill="#faa6b2" r="32"/><path d="m182.672 280v-49.352a168.407 168.407 0 0 1 24-86.648l-16-16-.966 1.159a168.41 168.41 0 0 0 -39.034 107.815v43.026z" fill="#62ae88"/><path d="m184.2 208a167.664 167.664 0 0 0 -1.53 22.65v9.35h-32v-3.03a168.632 168.632 0 0 1 2.51-28.97z" fill="#62ae88"/><path d="m206.67 144c-.64 1.06-1.26 2.13-1.87 3.2a168.029 168.029 0 0 0 -13.01 28.8h-29.69a168.507 168.507 0 0 1 22.21-40c1.73-2.32 3.54-4.6 5.4-6.84l.96-1.16 8 8 6.86 6.86z" fill="#62ae88"/><circle cx="96" cy="256" fill="#62ae88" r="16"/><g fill="#5f967c"><path d="m190.839 152.592 137.161 44.828-20.6-26.173a80 80 0 0 0 -84.212-27.613z"/><path d="m190.839 152.592 128.686-65.292-33.078-3.938a80 80 0 0 0 -79.072 40.023z"/><path d="m191.125 152.685-137.161-44.827 32.085-8.958a80 80 0 0 1 84.266 27.451z"/><path d="m191.125 152.685-137.161-44.827 32.085-8.958a80 80 0 0 1 84.266 27.451z"/><path d="m191.125 152.685-65.289-128.685 29.018 16.357a80 80 0 0 1 40.174 79z"/><path d="m206.67 136-1.14 6.86-.73 4.34-13.01 28.8h-29.69a168.507 168.507 0 0 1 22.21-40z"/><path d="m184.2 208a167.664 167.664 0 0 0 -1.53 22.65v9.35h-32v-3.03a168.632 168.632 0 0 1 2.51-28.97z"/></g><path d="m184 352h-32a8 8 0 0 1 0-16h32a8 8 0 0 1 0 16z" fill="#009193"/><path d="m224 352h-8a8 8 0 0 1 0-16h8a8 8 0 0 1 0 16z" fill="#009193"/><path d="m312 352h-56a8 8 0 0 1 0-16h56a8 8 0 0 1 0 16z" fill="#009193"/><path d="m224 384h-24a8 8 0 0 1 0-16h24a8 8 0 0 1 0 16z" fill="#009193"/><path d="m288 384h-40a8 8 0 0 1 0-16h40a8 8 0 0 1 0 16z" fill="#009193"/><path d="m408 496a8 8 0 0 1 -8-8v-40a8 8 0 0 1 16 0v40a8 8 0 0 1 -8 8z" fill="#bf6d48"/><path d="m456 496a8 8 0 0 1 -8-8v-40a8 8 0 0 1 16 0v40a8 8 0 0 1 -8 8z" fill="#bf6d48"/><path d="m432 360a8 8 0 0 1 -8-8v-32a8 8 0 0 1 2.343-5.657l16-16a8 8 0 0 1 11.314 11.314l-13.657 13.656v28.687a8 8 0 0 1 -8 8z" fill="#fffbd5"/><circle cx="400" cy="344" fill="#5f967c" r="16"/><circle cx="400" cy="344" fill="#69a88c" r="8"/><path d="m264 312a40 40 0 1 1 64 0z" fill="#e82f3e"/><path d="m486.634 184a23.946 23.946 0 0 0 1.366-8 24.006 24.006 0 0 0 -17.281-23.04 32 32 0 1 0 -61.719-16.91c-.331-.02-.66-.05-1-.05a16 16 0 0 0 -16 16c0 .455.031.9.068 1.348a24.005 24.005 0 0 0 -16.068 22.652 23.946 23.946 0 0 0 1.366 8z" fill="#b0d2fd"/><path d="m118.634 208a24 24 0 0 0 -33.56-29.366 32 32 0 1 0 -56.793 29.366z" fill="#b0d2fd"/><path d="m368 80h-24a8 8 0 0 1 0-16h24a8 8 0 0 1 0 16z" fill="#598cdd"/><path d="m408 352v20.686a27.31 27.31 0 0 0 8 19.314v24h32v-24a27.315 27.315 0 0 0 8-19.314v-20.686z" fill="#e8ed73"/><path d="m472 448-40 16-40-16v-32h80z" fill="#dbdbdb"/><circle cx="208" cy="144" fill="#62ae88" r="16"/><circle cx="184" cy="136" fill="#62ae88" r="16"/><path d="m103.63 477.59a32.237 32.237 0 0 1 -12.78 8.53 5.572 5.572 0 0 1 -.51-.46l-.67-.68a66.579 66.579 0 0 1 -18.11-59.85 32.167 32.167 0 0 1 16.37-.14 6.317 6.317 0 0 1 -.17.95 50.51 50.51 0 0 0 13.22 47.73l.68.67a7.916 7.916 0 0 1 1.97 3.25z" fill="#ffd6dc"/><path d="m488 496h-464a8 8 0 0 1 0-16h464a8 8 0 0 1 0 16z" fill="#ebc643"/><path d="m225.829 312a95.962 95.962 0 0 0 -83.157-48h-16a95.961 95.961 0 0 0 -83.157 48z" fill="#ebc643"/><path d="m376 256a8 8 0 0 0 0 16 17.79 17.79 0 0 1 16 9.89l.845 1.689a8 8 0 0 0 14.31 0l.845-1.69a17.791 17.791 0 0 1 16-9.889 8 8 0 0 0 0-16 33.7 33.7 0 0 0 -24 9.931 33.7 33.7 0 0 0 -24-9.931z"/><path d="m432 233.89.845 1.689a8 8 0 0 0 14.31 0l.845-1.69a17.791 17.791 0 0 1 16-9.889 8 8 0 0 0 0-16 33.7 33.7 0 0 0 -24 9.931 33.7 33.7 0 0 0 -24-9.931 8 8 0 0 0 0 16 17.79 17.79 0 0 1 16 9.89z"/><path d="m352 104a8 8 0 0 0 8 8h24a8 8 0 0 0 0-16h-24a8 8 0 0 0 -8 8z"/><path d="m216 216a8 8 0 0 0 0 16h24a8 8 0 0 0 0-16z"/><path d="m272 216a8 8 0 0 0 0 16h16a8 8 0 0 0 0-16z"/><path d="m400 80h16a8 8 0 0 0 0-16h-16a8 8 0 0 0 0 16z"/><path d="m184 336h-32a8 8 0 0 0 0 16h32a8 8 0 0 0 0-16z"/><path d="m224 352a8 8 0 0 0 0-16h-8a8 8 0 0 0 0 16z"/><path d="m312 352a8 8 0 0 0 0-16h-56a8 8 0 0 0 0 16z"/><path d="m192 376a8 8 0 0 0 8 8h24a8 8 0 0 0 0-16h-24a8 8 0 0 0 -8 8z"/><path d="m240 376a8 8 0 0 0 8 8h40a8 8 0 0 0 0-16h-40a8 8 0 0 0 -8 8z"/><path d="m443.313 320h44.687a8 8 0 0 0 0-16h-32a8 8 0 0 0 -13.657-5.657l-5.656 5.657h-95.418a48 48 0 1 0 -90.538 0h-20.426a104.294 104.294 0 0 0 -39.633-36.191v-37.162a159.219 159.219 0 0 1 12.917-63.06 23.775 23.775 0 0 0 7.851.163l114.075 37.274a8 8 0 0 0 8.771-12.552l-20.6-26.171a87.944 87.944 0 0 0 -66.1-33.53l75.554-38.337a8 8 0 0 0 -2.676-15.079l-33.064-3.929a87.737 87.737 0 0 0 -83.933 39.029 87.764 87.764 0 0 0 -44.687-81.063l-29.01-16.36a8 8 0 0 0 -11.065 10.587l38.323 75.546a87.773 87.773 0 0 0 -73.128-11.965l-32.086 8.953a8 8 0 0 0 -.334 15.309l112.834 36.878a176.591 176.591 0 0 0 -21.641 84.635v19.025h-16q-3.354 0-6.678.22c0-.074.006-.146.006-.22a24 24 0 1 0 -44 13.252 104.244 104.244 0 0 0 -36.962 34.748h-15.039a8 8 0 0 0 0 16h400v24a24 24 0 1 0 -24 24v4.687a35.344 35.344 0 0 0 8 22.385v12.928h-16a8 8 0 0 0 -8 8v32a8 8 0 0 0 5.029 7.428l10.971 4.388v20.184h-46.19l-6.459-38.749 25.893-51.785a25.889 25.889 0 0 0 -46.311-23.155l-16.845 33.689h-147.055a24 24 0 0 0 -9.142 46.187l-5.635 33.813h-36.278a39.972 39.972 0 0 0 -31.609-63.991h-.1c-.09 0-.179-.007-.269-.007a39.978 39.978 0 0 0 -31.978 64h-24.022a8 8 0 0 0 0 16h464a8 8 0 0 0 0-16h-24v-20.186l10.971-4.388a8 8 0 0 0 5.029-7.428v-32a8 8 0 0 0 -8-8h-16v-12.924a35.048 35.048 0 0 0 8-22.389v-20.687a8 8 0 0 0 -8-8h-16v-20.687zm-142.2-143.8 4.26 5.412-76.887-25.123a23.856 23.856 0 0 0 2.763-6.524 71.963 71.963 0 0 1 69.865 26.235zm-15.607-84.886 6.824.811-67.867 34.436a24.057 24.057 0 0 0 -6.805-4.525 71.769 71.769 0 0 1 67.848-30.722zm-77.506 44.686a8 8 0 1 1 -8 8 8.009 8.009 0 0 1 8-8zm-18.319 23.481q-1.866 4.227-3.5 8.519h-11.9q2.075-4.359 4.412-8.6a23.74 23.74 0 0 0 10.862-.064c.045.05.085.097.126.145zm-5.681-15.481a8 8 0 1 1 4.8-14.386 23.872 23.872 0 0 0 -4.8 14.386zm-23.92-9.877-78.516-25.662 6.636-1.851a71.809 71.809 0 0 1 73.139 21.5 23.818 23.818 0 0 0 -1.259 6.013zm-15.149-90.173 5.991 3.379a71.792 71.792 0 0 1 36.61 64.94 23.526 23.526 0 0 0 -7.878.133zm22.759 140.05h13.236q-2.175 7.914-3.582 16h-14.344a160.541 160.541 0 0 1 4.69-16zm-7.635 32h15.22q-.6 7.273-.6 14.647v1.353h-15.92a160.524 160.524 0 0 1 1.3-16zm-1.383 32h16v13.094a103.932 103.932 0 0 0 -16-3.833zm-62.672 0a8 8 0 0 1 7.555 10.631 103.992 103.992 0 0 0 -12.437 3.689 7.988 7.988 0 0 1 4.882-14.32zm-37.2 56a88.361 88.361 0 0 1 67.876-32h16a88.363 88.363 0 0 1 67.876 32zm264.928 0h-55.452a32 32 0 1 1 55.448 0zm-243.728 176a24 24 0 0 1 -9.588-45.995 66.777 66.777 0 0 0 14.388 45.513 24.064 24.064 0 0 1 -4.8.482zm18.618-8.876a50.6 50.6 0 0 1 -12.064-38.207 23.977 23.977 0 0 1 12.064 38.207zm56.415-47.124a8.009 8.009 0 0 1 8-8h152a8 8 0 0 0 7.155-4.422l19.056-38.112a9.836 9.836 0 0 1 8.844-5.466 9.889 9.889 0 0 1 8.845 14.311l-24.845 49.689h-171.055a8.009 8.009 0 0 1 -8-8zm43.1 56 2.667-8h100.467l2.666 8zm122.667 0-6.177-18.53a8 8 0 0 0 -7.589-5.47h-112a8 8 0 0 0 -7.59 5.47l-6.177 18.53h-16.79l5.333-32h162.446l5.333 32zm79.2-128a8 8 0 1 1 8-8 8 8 0 0 0 -8 8zm48 128h-32v-13.784l13.029 5.212a8 8 0 0 0 5.942 0l13.029-5.212zm16-56v18.583l-32 12.8-32-12.8v-18.583zm-16-64v12.687a19.187 19.187 0 0 1 -5.657 13.656 8 8 0 0 0 -2.343 5.657v16h-16v-16a8 8 0 0 0 -2.343-5.657 19.305 19.305 0 0 1 -5.657-13.656v-12.687"/><path d="m479.781 148.173a40.007 40.007 0 0 0 -76.669-19.673 24.07 24.07 0 0 0 -18.8 19.607 32.027 32.027 0 0 0 -14.492 38.559 8 8 0 0 0 7.546 5.334h109.268a8 8 0 0 0 7.543-5.334 32.011 32.011 0 0 0 -14.4-38.493zm-95.781 27.827a16.018 16.018 0 0 1 10.712-15.1 8 8 0 0 0 5.328-8.223c-.019-.224-.04-.448-.04-.676a8 8 0 0 1 7.952-8l.55.035a7.989 7.989 0 0 0 8.245-6 24 24 0 1 1 46.291 12.692 8 8 0 0 0 5.445 9.918 16.074 16.074 0 0 1 11.517 15.354z"/><path d="m28.281 216h90.353a8 8 0 0 0 7.543-5.334 31.994 31.994 0 0 0 -37.555-41.8 40 40 0 0 0 -67.266 43.139 8 8 0 0 0 6.925 3.995zm27.719-48a24.083 24.083 0 0 1 21.807 13.98 8 8 0 0 0 10.916 3.773 15.81 15.81 0 0 1 7.277-1.753 16.019 16.019 0 0 1 16 16h-78.633a24.013 24.013 0 0 1 22.633-32z"/><path d="m344 80h24a8 8 0 0 0 0-16h-24a8 8 0 0 0 0 16z"/></g></svg>